<svg height="438pt" viewBox="0 -19 438.00146 438" width="438pt" xmlns="http://www.w3.org/2000/svg"><path d="m89.804688 360c-22.089844 0-40-17.90625-40-40v-142.265625c-.003907-3.371094.421874-6.734375 1.261718-10h-1.261718c-22.089844 0-40 17.910156-40 40v142.265625c0 22.09375 17.910156 40 40 40h223.800781c18.242187 0 34.171875-12.339844 38.738281-30zm0 0" fill="#8b8d8f"/><path d="m313.914062 276.632812v20.367188c-.015624 5.332031-1.328124 10.578125-3.828124 15.285156l118.113281 62.160156v-50.179687zm0 0" fill="#8b8d8f"/><path d="m222.089844 143.3125c-39.574219 0-71.65625-32.082031-71.65625-71.65625s32.082031-71.65625 71.65625-71.65625c39.574218 0 71.65625 32.082031 71.65625 71.65625s-32.082032 71.65625-71.65625 71.65625zm0-123.3125c-28.527344 0-51.65625 23.128906-51.65625 51.65625 0 28.53125 23.128906 51.65625 51.65625 51.65625s51.65625-23.125 51.65625-51.65625c0-28.527344-23.128906-51.65625-51.65625-51.65625zm0 0" fill="#ea4343"/><path d="m74.566406 124.3125c-29.078125 0-52.65625-23.574219-52.652344-52.65625 0-29.082031 23.574219-52.65625 52.65625-52.65625 29.082032 0 52.65625 23.574219 52.65625 52.65625s-23.578124 52.65625-52.660156 52.65625zm0-85.3125c-18.035156 0-32.65625 14.621094-32.652344 32.65625 0 18.035156 14.621094 32.65625 32.65625 32.65625 18.035157 0 32.65625-14.621094 32.65625-32.65625s-14.621093-32.65625-32.660156-32.65625zm0 0" fill="#ea4343"/><path d="m433.191406 174.683594c-2.953125-1.800782-6.648437-1.859375-9.660156-.160156l-99.53125 54.765624v-21.554687c0-27.570313-22.820312-49.734375-50.390625-49.734375h-223.804687c-27.425782-.078125-49.726563 22.09375-49.804688 49.519531v142.480469c-.0625 27.554688 22.226562 49.941406 49.78125 50h223.824219c27.574219 0 50.394531-22.429688 50.394531-50v-21.535156l99.582031 54.746094c1.4375.808593 3.0625 1.234374 4.710938 1.234374 1.746093 0 3.457031-.484374 4.945312-1.394531 3.007813-1.816406 4.820313-5.09375 4.761719-8.605469v-191.15625c.039062-3.519531-1.792969-6.792968-4.808594-8.605468zm-159.582031 205.316406h-223.804687c-16.496094-.035156-29.839844-13.433594-29.804688-29.929688v-142.335937c-.050781-16.371094 13.179688-29.683594 29.546875-29.734375h.257813 223.800781c16.542969 0 30.394531 13.191406 30.394531 29.734375v142.265625c0 16.542969-13.851562 30-30.390625 30zm144.390625-22.449219-94-51.898437v-53.550782l94-51.917968zm0 0" fill="#ffffff"/></svg>