<?xml version="1.0" encoding="iso-8859-1"?>
<!-- Uploaded to: SVG Repo, www.svgrepo.com, Generator: SVG Repo Mixer Tools -->
<svg height="800px" width="800px" version="1.1" id="Layer_1" xmlns="http://www.w3.org/2000/svg" xmlns:xlink="http://www.w3.org/1999/xlink" 
	 viewBox="0 0 512 512" xml:space="preserve">
<g transform="translate(1 1)">
	<g>
		<path style="fill:#63D3FD;" d="M442.733,476.867H67.267c-9.387,0-17.067-7.68-17.067-17.067s7.68-17.067,17.067-17.067h375.467
			c9.387,0,17.067,7.68,17.067,17.067S452.12,476.867,442.733,476.867"/>
		<path style="fill:#63D3FD;" d="M58.733,58.733c0,14.507-11.093,25.6-25.6,25.6s-25.6-11.093-25.6-25.6s11.093-25.6,25.6-25.6
			S58.733,44.227,58.733,58.733"/>
		<path style="fill:#63D3FD;" d="M280.6,58.733c0,14.507-11.093,25.6-25.6,25.6c-14.507,0-25.6-11.093-25.6-25.6
			s11.093-25.6,25.6-25.6C269.507,33.133,280.6,44.227,280.6,58.733"/>
		<path style="fill:#63D3FD;" d="M502.467,58.733c0,14.507-11.093,25.6-25.6,25.6c-14.507,0-25.6-11.093-25.6-25.6
			s11.093-25.6,25.6-25.6C491.373,33.133,502.467,44.227,502.467,58.733"/>
		<path style="fill:#63D3FD;" d="M442.733,374.467H67.267c-9.387,0-17.067-7.68-17.067-17.067s7.68-17.067,17.067-17.067h375.467
			c9.387,0,17.067,7.68,17.067,17.067S452.12,374.467,442.733,374.467"/>
	</g>
	<g>
		<path style="fill:#3DB9F9;" d="M442.733,340.333h-25.6c9.387,0,17.067,7.68,17.067,17.067s-7.68,17.067-17.067,17.067h25.6
			c9.387,0,17.067-7.68,17.067-17.067S452.12,340.333,442.733,340.333"/>
		<path style="fill:#3DB9F9;" d="M442.733,442.733h-25.6c9.387,0,17.067,7.68,17.067,17.067s-7.68,17.067-17.067,17.067h25.6
			c9.387,0,17.067-7.68,17.067-17.067S452.12,442.733,442.733,442.733"/>
	</g>
	<g>
		<path style="fill:#FFFFFF;" d="M67.267,340.333h25.6c-9.387,0-17.067,7.68-17.067,17.067s7.68,17.067,17.067,17.067h-25.6
			c-9.387,0-17.067-7.68-17.067-17.067S57.88,340.333,67.267,340.333"/>
		<path style="fill:#FFFFFF;" d="M67.267,442.733h25.6c-9.387,0-17.067,7.68-17.067,17.067s7.68,17.067,17.067,17.067h-25.6
			c-9.387,0-17.067-7.68-17.067-17.067S57.88,442.733,67.267,442.733"/>
	</g>
	<polygon style="fill:#FFE100;" points="365.933,229.4 255,84.333 144.067,229.4 33.133,84.333 92.867,340.333 255,340.333 
		417.133,340.333 476.867,84.333 	"/>
	<polygon style="fill:#FFA800;" points="440.173,132.12 391.533,340.333 417.133,340.333 476.867,84.333 	"/>
	<polygon style="fill:#FFFFFF;" points="69.827,132.12 118.467,340.333 92.867,340.333 33.133,84.333 	"/>
	<polygon style="fill:#FFE100;" points="75.8,442.733 434.2,442.733 434.2,374.467 75.8,374.467 	"/>
	<polygon style="fill:#FFA800;" points="408.6,442.733 434.2,442.733 434.2,374.467 408.6,374.467 	"/>
	<polygon style="fill:#FFFFFF;" points="75.8,442.733 101.4,442.733 101.4,374.467 75.8,374.467 	"/>
	<path style="fill:#63D3FD;" d="M289.133,237.933c0,33.28-15.36,59.733-34.133,59.733s-34.133-26.453-34.133-59.733
		S236.227,178.2,255,178.2S289.133,204.653,289.133,237.933"/>
	<path d="M417.133,348.867H92.867c-4.267,0-7.68-2.56-8.533-6.827L24.6,86.04c-0.853-3.413,0.853-7.68,5.12-9.387
		c3.413-1.707,7.68-0.853,10.24,2.56l104.107,136.533L248.173,79.213c3.413-4.267,10.24-4.267,13.653,0l104.107,136.533
		L470.04,79.213c2.56-3.413,6.827-4.267,10.24-2.56c3.413,1.707,5.973,5.973,4.267,9.387l-59.733,256
		C424.813,346.307,421.4,348.867,417.133,348.867z M99.693,331.8h310.613L459.8,121.027L372.76,234.52
		c-3.413,4.267-10.24,4.267-13.653,0L255,97.987L150.893,234.52c-3.413,4.267-10.24,4.267-13.653,0L50.2,121.027L99.693,331.8z"/>
	<path d="M255,306.2c-23.893,0-42.667-29.867-42.667-68.267s18.773-68.267,42.667-68.267s42.667,29.867,42.667,68.267
		S278.893,306.2,255,306.2z M255,186.733c-11.947,0-25.6,21.333-25.6,51.2s13.653,51.2,25.6,51.2s25.6-21.333,25.6-51.2
		S266.947,186.733,255,186.733z"/>
	<path d="M255,263.533c-5.12,0-8.533-3.413-8.533-8.533v-34.133c0-5.12,3.413-8.533,8.533-8.533s8.533,3.413,8.533,8.533V255
		C263.533,260.12,260.12,263.533,255,263.533z"/>
	<path d="M442.733,383H67.267c-14.507,0-25.6-11.093-25.6-25.6s11.093-25.6,25.6-25.6h375.467c14.507,0,25.6,11.093,25.6,25.6
		S457.24,383,442.733,383z M67.267,348.867c-5.12,0-8.533,3.413-8.533,8.533s3.413,8.533,8.533,8.533h375.467
		c5.12,0,8.533-3.413,8.533-8.533s-3.413-8.533-8.533-8.533H67.267z"/>
	<path d="M442.733,485.4H67.267c-14.507,0-25.6-11.093-25.6-25.6s11.093-25.6,25.6-25.6h375.467c14.507,0,25.6,11.093,25.6,25.6
		S457.24,485.4,442.733,485.4z M67.267,451.267c-5.12,0-8.533,3.413-8.533,8.533s3.413,8.533,8.533,8.533h375.467
		c5.12,0,8.533-3.413,8.533-8.533s-3.413-8.533-8.533-8.533H67.267z"/>
	<path d="M442.733,451.267H67.267v-85.333h375.467V451.267z M84.333,434.2h341.333V383H84.333V434.2z"/>
	<path d="M220.867,417.133H152.6c-5.12,0-8.533-3.413-8.533-8.533c0-5.12,3.413-8.533,8.533-8.533h68.267
		c5.12,0,8.533,3.413,8.533,8.533C229.4,413.72,225.987,417.133,220.867,417.133z"/>
	<path d="M357.4,417.133h-68.267c-5.12,0-8.533-3.413-8.533-8.533c0-5.12,3.413-8.533,8.533-8.533H357.4
		c5.12,0,8.533,3.413,8.533,8.533C365.933,413.72,362.52,417.133,357.4,417.133z"/>
	<path d="M263.533,408.6c0,5.12-3.413,8.533-8.533,8.533s-8.533-3.413-8.533-8.533c0-5.12,3.413-8.533,8.533-8.533
		S263.533,403.48,263.533,408.6"/>
	<path d="M400.067,408.6c0,5.12-3.413,8.533-8.533,8.533S383,413.72,383,408.6c0-5.12,3.413-8.533,8.533-8.533
		S400.067,403.48,400.067,408.6"/>
	<path d="M109.933,408.6c0-5.12,3.413-8.533,8.533-8.533S127,403.48,127,408.6c0,5.12-3.413,8.533-8.533,8.533
		S109.933,413.72,109.933,408.6"/>
	<path d="M33.133,92.867C14.36,92.867-1,77.507-1,58.733S14.36,24.6,33.133,24.6s34.133,15.36,34.133,34.133
		S51.907,92.867,33.133,92.867z M33.133,41.667c-9.387,0-17.067,7.68-17.067,17.067S23.747,75.8,33.133,75.8S50.2,68.12,50.2,58.733
		S42.52,41.667,33.133,41.667z"/>
	<path d="M255,92.867c-18.773,0-34.133-15.36-34.133-34.133S236.227,24.6,255,24.6s34.133,15.36,34.133,34.133
		S273.773,92.867,255,92.867z M255,41.667c-9.387,0-17.067,7.68-17.067,17.067S245.613,75.8,255,75.8s17.067-7.68,17.067-17.067
		S264.387,41.667,255,41.667z"/>
	<path d="M476.867,92.867c-18.773,0-34.133-15.36-34.133-34.133S458.093,24.6,476.867,24.6S511,39.96,511,58.733
		S495.64,92.867,476.867,92.867z M476.867,41.667c-9.387,0-17.067,7.68-17.067,17.067S467.48,75.8,476.867,75.8
		s17.067-7.68,17.067-17.067S486.253,41.667,476.867,41.667z"/>
</g>
</svg>