<svg height="433pt" viewBox="0 0 433.82486 433" width="433pt" xmlns="http://www.w3.org/2000/svg"><path d="m356.199219 187.3125c-5.515625.015625-9.984375 4.484375-10 10v186.902344c-.046875 16.546875-13.449219 29.949218-30 30h-266.199219c-16.546875-.050782-29.953125-13.453125-30-30v-266.203125c.046875-16.546875 13.453125-29.949219 30-30h186.898438c5.523437 0 10-4.476563 10-10 0-5.523438-4.476563-10-10-10h-186.898438c-27.609375.011719-49.9882812 22.390625-50 50v266.203125c.0117188 27.609375 22.390625 49.988281 50 50h266.199219c27.609375-.011719 49.992187-22.390625 50-50v-186.902344c-.015625-5.515625-4.484375-9.984375-10-10zm0 0" fill="#ffffff"/><path d="m379.800781 3.3125c-1.882812-1.882812-4.441406-2.925781-7.101562-2.898438-2.652344.019532-5.191407 1.054688-7.097657 2.898438l-143.203124 143.199219-.398438.402343-.199219.199219c-.199219.300781-.5.601563-.699219.898438 0 .101562-.101562.101562-.101562.203125-.199219.296875-.300781.5-.5.796875-.101562.101562-.101562.203125-.199219.300781-.101562.300781-.199219.5-.300781.800781 0 .101563-.101562.101563-.101562.199219l-25.5 76.902344c-1.222657 3.578125-.292969 7.542968 2.402343 10.199218 1.890625 1.863282 4.441407 2.90625 7.097657 2.898438 1.085937-.019531 2.164062-.1875 3.203124-.5l76.699219-25.597656c.097657 0 .097657 0 .199219-.101563.316406-.089843.621094-.226562.898438-.398437.078124-.011719.148437-.046875.203124-.101563.296876-.199219.699219-.398437 1-.601562.296876-.199219.597657-.5.898438-.699219.101562-.097656.199219-.097656.199219-.199219.101562-.101562.300781-.199219.402343-.398437l143.296876-143.300782c1.875-1.871093 2.925781-4.40625 2.925781-7.050781s-1.050781-5.183593-2.925781-7.050781zm-160.101562 211.199219 14.101562-42.398438 28.300781 28.300781zm60.902343-23.898438-37-37 129.097657-129.101562 37 37zm0 0" fill="#ea4343"/></svg>