<svg height="467pt" viewBox="-22 0 467 467.1" width="467pt" xmlns="http://www.w3.org/2000/svg"><g fill="#8b8d8f"><path d="m123.652344 125.699219c0-52.851563 42.84375-95.699219 95.699218-95.699219 3.097657 0 6.097657.199219 9.097657.398438-32.085938-25.167969-76.597657-27.246094-110.886719-5.171876-34.292969 22.074219-50.832031 63.449219-41.207031 103.078126 9.625 39.628906 43.300781 68.808593 83.894531 72.695312-23.109375-18.152344-36.605469-45.914062-36.597656-75.300781zm0 0"/><path d="m219.25 265.199219c11.292969-.007813 22.554688 1.164062 33.601562 3.5-25.121093-15.5-54.085937-23.640625-83.601562-23.5-88.097656.199219-159.398438 70.5-159.199219 166.199219l51-.097657c9.101563-85.300781 76.398438-145.902343 158.199219-146.101562zm0 0"/><path d="m381.949219 410.601562c0-15.300781 12.402343-27.703124 27.703125-27.703124h.097656c-6.648438-11.699219-20.742188-16.929688-33.414062-12.398438-12.671876 4.527344-20.257813 17.503906-17.988282 30.769531 2.273438 13.261719 13.746094 22.976563 27.203125 23.03125-2.332031-4.191406-3.570312-8.902343-3.601562-13.699219zm0 0"/><path d="m247.351562 443.398438c.015626-15.289063 12.40625-27.683594 27.699219-27.699219h.101563c-6.652344-11.699219-20.746094-16.929688-33.417969-12.402344-12.671875 4.53125-20.257813 17.507813-17.984375 30.773437 2.269531 13.261719 13.742188 22.976563 27.199219 23.03125-2.363281-4.179687-3.605469-8.898437-3.597657-13.703124zm0 0"/></g><path d="m169.351562 211.398438c58.375 0 105.699219-47.320313 105.699219-105.699219 0-58.375-47.324219-105.699219-105.699219-105.699219-58.378906 0-105.699218 47.324219-105.699218 105.699219.054687 58.355469 47.34375 105.644531 105.699218 105.699219zm0-191.398438c47.328126 0 85.699219 38.371094 85.699219 85.699219 0 47.332031-38.371093 85.699219-85.699219 85.699219-47.332031 0-85.699218-38.367188-85.699218-85.699219.054687-47.308594 38.390625-85.644531 85.699218-85.699219zm0 0" fill="#ffffff"/><path d="m285.652344 281.5.199218.199219zm0 0" fill="#ffffff"/><path d="m385.652344 358.898438c-20.824219 0-37.703125 16.878906-37.703125 37.703124 0 20.820313 16.878906 37.699219 37.703125 37.699219 20.820312 0 37.699218-16.878906 37.699218-37.699219-.015624-20.816406-16.886718-37.6875-37.699218-37.703124zm0 55.402343c-9.777344 0-17.703125-7.925781-17.703125-17.699219 0-9.777343 7.925781-17.703124 17.703125-17.703124 9.773437 0 17.699218 7.925781 17.699218 17.703124.007813 4.695313-1.855468 9.203126-5.175781 12.523438-3.320312 3.320312-7.828125 5.183594-12.523437 5.175781zm0 0" fill="#ffffff"/><path d="m251.050781 391.699219c-9.042969 0-17.777343 3.269531-24.601562 9.199219l-206.097657.5c2.097657-39.296876 17.398438-75.199219 43.398438-101.898438 27.699219-28.5 65.199219-44.199219 105.5-44.199219h.300781c38.101563-.1875 74.785157 14.441407 102.300781 40.800781.199219.199219.398438.296876.597657.5l-.597657-.601562.699219.601562.199219.199219 7.601562-9.5 5.398438-5.699219-.097656-.101562c-31.101563-29.898438-72.300782-46.300781-116.101563-46.300781h-.398437c-45.800782.101562-88.300782 17.902343-119.800782 50.300781-31.902343 32.699219-49.4023432 77.398438-49.3007808 125.898438.0195313 2.652343 1.0585938 5.195312 2.8984378 7.101562 1.882812 1.882812 4.441406 2.925781 7.101562 2.898438l204.300781-.5c-.636718 2.792968-.96875 5.640624-1 8.5 0 20.824218 16.878907 37.703124 37.699219 37.703124 20.820313 0 37.699219-16.878906 37.699219-37.703124.015625-.800782-.015625-1.601563-.097656-2.398438-1.25-19.847656-17.714844-35.308594-37.601563-35.300781zm0 55.402343c-6.980469-.003906-13.304687-4.105468-16.15625-10.476562-2.851562-6.371094-1.691406-13.820312 2.957031-19.023438 3.382813-3.722656 8.167969-5.859374 13.199219-5.902343 9.335938.003906 17.050781 7.28125 17.601563 16.601562v1.097657c.027344 4.6875-1.8125 9.191406-5.117188 12.515624-3.304687 3.324219-7.796875 5.191407-12.484375 5.1875zm0 0" fill="#ffffff"/><path d="m410.949219 235.300781c-7.777344-6.484375-18.058594-9.128906-28-7.199219l-86.5 14.898438h-.199219c-15.964844 3.136719-27.484375 17.128906-27.5 33.398438v151.203124c0 5.519532 4.476562 10 10 10s10-4.480468 10-10v-151.203124c-.015625-6.652344 4.675781-12.390626 11.199219-13.699219l86.5-14.898438h.203125c4.101562-.773437 8.339844.285157 11.597656 2.898438 3.214844 2.667969 5.082031 6.625 5.101562 10.800781v133.300781c0 5.523438 4.476563 10 10 10 5.523438 0 10-4.476562 10-10v-133.300781c.019532-10.152344-4.535156-19.777344-12.402343-26.199219zm0 0" fill="#ea4343"/></svg>